<svg width="390" height="844" viewBox="0 0 390 844" fill="none" xmlns="http://www.w3.org/2000/svg">
  <rect width="390" height="844" rx="40" fill="#0D1210"/>
  <rect x="12" y="12" width="366" height="820" rx="32" fill="#0D1210"/>
  <text x="50" y="45" font-family="Inter" font-size="14" font-weight="600" fill="white">9:41</text>
  <text x="40" y="100" font-family="Inter" font-size="22" font-weight="700" fill="white">Partner Dashboard 📊</text>
  <rect x="40" y="130" width="95" height="80" rx="12" fill="rgba(255,255,255,0.06)"/>
  <text x="88" y="168" font-family="Inter" font-size="28" font-weight="800" fill="white" text-anchor="middle">156</text>
  <text x="88" y="195" font-family="Inter" font-size="11" fill="#888" text-anchor="middle">Orders/Week</text>
  <rect x="147" y="130" width="95" height="80" rx="12" fill="rgba(255,255,255,0.06)"/>
  <text x="195" y="168" font-family="Inter" font-size="28" font-weight="800" fill="white" text-anchor="middle">2.3M</text>
  <text x="195" y="195" font-family="Inter" font-size="11" fill="#888" text-anchor="middle">Revenue</text>
  <rect x="254" y="130" width="95" height="80" rx="12" fill="rgba(255,255,255,0.06)"/>
  <text x="302" y="168" font-family="Inter" font-size="28" font-weight="800" fill="white" text-anchor="middle">4.7</text>
  <text x="302" y="195" font-family="Inter" font-size="11" fill="#888" text-anchor="middle">Rating</text>
  <rect x="40" y="240" width="310" height="100" rx="12" fill="rgba(255,255,255,0.06)" stroke="#22C55E" stroke-width="2"/>
  <rect x="56" y="256" width="48" height="48" rx="10" fill="url(#partnerGrad)"/>
  <text x="80" y="285" font-size="20" text-anchor="middle">📦</text>
  <text x="120" y="275" font-family="Inter" font-size="14" font-weight="600" fill="white">New Order #782</text>
  <text x="120" y="295" font-family="Inter" font-size="12" fill="#888">3 items · SYP 28,500</text>
  <rect x="120" y="310" width="80" height="24" rx="6" fill="#22C55E"/>
  <text x="160" y="326" font-family="Inter" font-size="11" font-weight="600" fill="white" text-anchor="middle">Accept</text>
  <rect x="210" y="310" width="80" height="24" rx="6" fill="rgba(255,255,255,0.1)"/>
  <text x="250" y="326" font-family="Inter" font-size="11" font-weight="600" fill="#888" text-anchor="middle">Reject</text>
  <rect x="40" y="360" width="310" height="80" rx="12" fill="rgba(255,255,255,0.06)"/>
  <text x="60" y="395" font-size="20">📈</text>
  <text x="90" y="388" font-family="Inter" font-size="14" font-weight="600" fill="white">Revenue Today</text>
  <text x="90" y="408" font-family="Inter" font-size="12" fill="#888">SYP 320,000 · +12%</text>
  <rect x="40" y="460" width="310" height="80" rx="12" fill="rgba(255,255,255,0.06)"/>
  <text x="60" y="495" font-size="20">⏰</text>
  <text x="90" y="488" font-family="Inter" font-size="14" font-weight="600" fill="white">Peak Hours</text>
  <text x="90" y="508" font-family="Inter" font-size="12" fill="#888">12:00 - 14:00 · 19:00 - 21:00</text>
  <rect x="40" y="560" width="310" height="80" rx="12" fill="rgba(255,255,255,0.06)"/>
  <text x="60" y="595" font-size="20">🍕</text>
  <text x="90" y="588" font-family="Inter" font-size="14" font-weight="600" fill="white">Top Item</text>
  <text x="90" y="608" font-family="Inter" font-size="12" fill="#888">Margherita Pizza · 45 orders</text>
  <rect x="40" y="680" width="145" height="100" rx="12" fill="rgba(34,197,94,0.1)"/>
  <text x="112" y="725" font-family="Inter" font-size="14" font-weight="600" fill="#22C55E" text-anchor="middle">Store Open</text>
  <text x="112" y="750" font-family="Inter" font-size="11" fill="#888" text-anchor="middle">Currently accepting</text>
  <rect x="205" y="680" width="145" height="100" rx="12" fill="rgba(255,255,255,0.06)"/>
  <text x="278" y="725" font-family="Inter" font-size="14" font-weight="600" fill="white" text-anchor="middle">Menu</text>
  <text x="278" y="750" font-family="Inter" font-size="11" fill="#888" text-anchor="middle">24 items</text>
  <defs>
    <linearGradient id="partnerGrad" x1="56" y1="256" x2="104" y2="304">
      <stop stop-color="#22C55E"/><stop offset="1" stop-color="#06B6D4"/>
    </linearGradient>
  </defs>
</svg>
