<svg width="390" height="844" viewBox="0 0 390 844" fill="none" xmlns="http://www.w3.org/2000/svg">
  <rect width="390" height="844" rx="40" fill="#0D1210"/>
  <rect x="12" y="12" width="366" height="820" rx="32" fill="#0D1210"/>
  <text x="50" y="45" font-family="Inter" font-size="14" font-weight="600" fill="white">9:41</text>
  <text x="40" y="100" font-family="Inter" font-size="22" font-weight="700" fill="white">Driver Dashboard 🚗</text>
  <rect x="40" y="130" width="95" height="80" rx="12" fill="rgba(255,255,255,0.06)"/>
  <text x="88" y="168" font-family="Inter" font-size="28" font-weight="800" fill="white" text-anchor="middle">23</text>
  <text x="88" y="195" font-family="Inter" font-size="11" fill="#888" text-anchor="middle">Deliveries</text>
  <rect x="147" y="130" width="95" height="80" rx="12" fill="rgba(255,255,255,0.06)"/>
  <text x="195" y="168" font-family="Inter" font-size="28" font-weight="800" fill="white" text-anchor="middle">45K</text>
  <text x="195" y="195" font-family="Inter" font-size="11" fill="#888" text-anchor="middle">Earned</text>
  <rect x="254" y="130" width="95" height="80" rx="12" fill="rgba(255,255,255,0.06)"/>
  <text x="302" y="168" font-family="Inter" font-size="28" font-weight="800" fill="white" text-anchor="middle">4.9</text>
  <text x="302" y="195" font-family="Inter" font-size="11" fill="#888" text-anchor="middle">Rating</text>
  <rect x="40" y="240" width="310" height="100" rx="12" fill="rgba(255,255,255,0.06)" stroke="#FF5A2C" stroke-width="2"/>
  <rect x="56" y="256" width="48" height="48" rx="10" fill="url(#driverGrad)"/>
  <text x="80" y="285" font-size="20" text-anchor="middle">📦</text>
  <text x="120" y="275" font-family="Inter" font-size="14" font-weight="600" fill="white">New Order Available</text>
  <text x="120" y="295" font-family="Inter" font-size="12" fill="#888">0.8 km away · SYP 3,500</text>
  <rect x="120" y="310" width="80" height="24" rx="6" fill="#22C55E"/>
  <text x="160" y="326" font-family="Inter" font-size="11" font-weight="600" fill="white" text-anchor="middle">Accept</text>
  <rect x="210" y="310" width="80" height="24" rx="6" fill="rgba(255,255,255,0.1)"/>
  <text x="250" y="326" font-family="Inter" font-size="11" font-weight="600" fill="#888" text-anchor="middle">Decline</text>
  <rect x="40" y="360" width="310" height="80" rx="12" fill="rgba(255,255,255,0.06)"/>
  <text x="60" y="395" font-size="20">📍</text>
  <text x="90" y="388" font-family="Inter" font-size="14" font-weight="600" fill="white">Delivering to</text>
  <text x="90" y="408" font-family="Inter" font-size="12" fill="#888">Mezzeh, Damascus</text>
  <rect x="40" y="460" width="310" height="80" rx="12" fill="rgba(255,255,255,0.06)"/>
  <text x="60" y="495" font-size="20">⏱️</text>
  <text x="90" y="488" font-family="Inter" font-size="14" font-weight="600" fill="white">Estimated Time</text>
  <text x="90" y="508" font-family="Inter" font-size="12" fill="#888">18 minutes</text>
  <rect x="40" y="600" width="310" height="120" rx="16" fill="url(#onlineGrad)"/>
  <text x="195" y="655" font-family="Inter" font-size="18" font-weight="700" fill="white" text-anchor="middle">Go Online</text>
  <text x="195" y="680" font-family="Inter" font-size="12" fill="rgba(255,255,255,0.7)" text-anchor="middle">Start receiving orders</text>
  <defs>
    <linearGradient id="driverGrad" x1="56" y1="256" x2="104" y2="304">
      <stop stop-color="#FF5A2C"/><stop offset="1" stop-color="#FF8C42"/>
    </linearGradient>
    <linearGradient id="onlineGrad" x1="40" y1="600" x2="350" y2="720">
      <stop stop-color="#22C55E"/><stop offset="1" stop-color="#06B6D4"/>
    </linearGradient>
  </defs>
</svg>
