<svg width="390" height="844" viewBox="0 0 390 844" fill="none" xmlns="http://www.w3.org/2000/svg">
  <rect width="390" height="844" rx="40" fill="#0D1210"/>
  <rect x="12" y="12" width="366" height="820" rx="32" fill="#0D1210"/>
  <rect x="125" y="12" width="140" height="30" rx="0 0 16 16" fill="#0D1210"/>
  <text x="50" y="45" font-family="Inter" font-size="14" font-weight="600" fill="white">9:41</text>
  <text x="340" y="45" font-family="Inter" font-size="12" fill="white">●●●</text>
  <text x="40" y="100" font-family="Inter" font-size="22" font-weight="700" fill="white">Good evening 👋</text>
  <rect x="40" y="120" width="310" height="48" rx="12" fill="rgba(255,255,255,0.06)"/>
  <text x="60" y="148" font-family="Inter" font-size="14" fill="#666">🔍  What do you need?</text>
  <circle cx="85" cy="210" r="30" fill="rgba(255,90,44,0.1)"/>
  <text x="85" y="215" font-size="24" text-anchor="middle">🍔</text>
  <text x="85" y="255" font-family="Inter" font-size="11" fill="#999" text-anchor="middle">Food</text>
  <circle cx="155" cy="210" r="30" fill="rgba(34,197,94,0.1)"/>
  <text x="155" y="215" font-size="24" text-anchor="middle">🛒</text>
  <text x="155" y="255" font-family="Inter" font-size="11" fill="#999" text-anchor="middle">Grocery</text>
  <circle cx="225" cy="210" r="30" fill="rgba(139,92,246,0.1)"/>
  <text x="225" y="215" font-size="24" text-anchor="middle">💊</text>
  <text x="225" y="255" font-family="Inter" font-size="11" fill="#999" text-anchor="middle">Pharmacy</text>
  <circle cx="295" cy="210" r="30" fill="rgba(245,158,11,0.1)"/>
  <text x="295" y="215" font-size="24" text-anchor="middle">📦</text>
  <text x="295" y="255" font-family="Inter" font-size="11" fill="#999" text-anchor="middle">Any Item</text>
  <rect x="40" y="290" width="310" height="80" rx="12" fill="rgba(255,255,255,0.06)"/>
  <rect x="56" y="306" width="48" height="48" rx="10" fill="url(#foodGrad)"/>
  <text x="80" y="335" font-size="20" text-anchor="middle">🍕</text>
  <text x="120" y="325" font-family="Inter" font-size="14" font-weight="600" fill="white">Pizza House</text>
  <text x="120" y="345" font-family="Inter" font-size="12" fill="#888">25-35 min · ⭐ 4.8</text>
  <rect x="40" y="380" width="310" height="80" rx="12" fill="rgba(255,255,255,0.06)"/>
  <rect x="56" y="396" width="48" height="48" rx="10" fill="url(#foodGrad2)"/>
  <text x="80" y="425" font-size="20" text-anchor="middle">🍔</text>
  <text x="120" y="415" font-family="Inter" font-size="14" font-weight="600" fill="white">Burger King</text>
  <text x="120" y="435" font-family="Inter" font-size="12" fill="#888">15-25 min · ⭐ 4.6</text>
  <rect x="40" y="470" width="310" height="80" rx="12" fill="rgba(255,255,255,0.06)"/>
  <rect x="56" y="486" width="48" height="48" rx="10" fill="url(#foodGrad3)"/>
  <text x="80" y="515" font-size="20" text-anchor="middle">🍣</text>
  <text x="120" y="505" font-family="Inter" font-size="14" font-weight="600" fill="white">Sushi Master</text>
  <text x="120" y="525" font-family="Inter" font-size="12" fill="#888">30-40 min · ⭐ 4.7</text>
  <rect x="40" y="560" width="310" height="80" rx="12" fill="rgba(255,255,255,0.06)"/>
  <rect x="56" y="576" width="48" height="48" rx="10" fill="url(#foodGrad4)"/>
  <text x="80" y="605" font-size="20" text-anchor="middle">☕</text>
  <text x="120" y="595" font-family="Inter" font-size="14" font-weight="600" fill="white">Coffee Bean</text>
  <text x="120" y="615" font-family="Inter" font-size="12" fill="#888">10-15 min · ⭐ 4.9</text>
  <defs>
    <linearGradient id="foodGrad" x1="56" y1="306" x2="104" y2="354">
      <stop stop-color="#FF5A2C"/><stop offset="1" stop-color="#FF8C42"/>
    </linearGradient>
    <linearGradient id="foodGrad2" x1="56" y1="396" x2="104" y2="444">
      <stop stop-color="#22C55E"/><stop offset="1" stop-color="#06B6D4"/>
    </linearGradient>
    <linearGradient id="foodGrad3" x1="56" y1="486" x2="104" y2="534">
      <stop stop-color="#8B5CF6"/><stop offset="1" stop-color="#EC4899"/>
    </linearGradient>
    <linearGradient id="foodGrad4" x1="56" y1="576" x2="104" y2="624">
      <stop stop-color="#F59E0B"/><stop offset="1" stop-color="#EF4444"/>
    </linearGradient>
  </defs>
  <rect x="40" y="700" width="310" height="56" rx="16" fill="#FF5A2C"/>
  <text x="195" y="734" font-family="Inter" font-size="16" font-weight="600" fill="white" text-anchor="middle">Browse Restaurants</text>
</svg>
